<svg width="150" height="150" viewBox="0 0 150 150" fill="none" xmlns="http://www.w3.org/2000/svg">
<path d="M112.53 119.926C112.482 120.186 112.463 120.455 112.468 120.719C112.478 121.336 112.591 121.948 112.607 122.564C112.642 123.933 111.8 124.976 112.208 126.397C112.394 127.047 113.094 128.27 113.876 128.252C114.654 128.235 115.134 127.39 115.358 126.763C115.698 125.811 116.024 124.942 116.506 124.042C116.739 123.608 116.966 123.161 117.15 122.702C115.465 121.955 113.961 121.071 112.888 120.234C112.761 120.135 112.643 120.032 112.53 119.926Z" fill="#1F2A50"/>
<path d="M129.919 121.625C130.108 121.828 130.292 122.036 130.484 122.235C131.034 122.802 131.74 123.401 132.514 123.243C133.154 123.111 133.592 122.463 133.662 121.813C133.731 121.162 133.504 120.517 133.224 119.925C132.543 118.487 131.536 117.237 130.423 116.111C130.455 116.425 130.486 116.741 130.509 117.057C130.621 118.572 130.506 120.259 129.919 121.625Z" fill="#1F2A50"/>
<path d="M130.739 125.973C130.518 124.726 130.066 123.54 129.499 122.411C129.129 122.979 128.648 123.458 128.021 123.79C127.406 124.115 126.712 124.32 125.967 124.43C126.437 125.463 126.941 126.482 127.488 127.478C127.867 128.171 128.391 128.934 129.178 128.986C129.831 129.028 130.425 128.518 130.663 127.909C130.902 127.3 130.853 126.618 130.739 125.973Z" fill="#1F2A50"/>
<path d="M121.114 124.066C121.136 124.169 121.158 124.271 121.181 124.373C121.457 125.607 121.784 126.829 122.162 128.035C122.398 128.789 122.76 129.641 123.523 129.847C124.154 130.017 124.837 129.634 125.191 129.084C125.545 128.534 125.632 127.855 125.647 127.201C125.668 126.29 125.563 125.386 125.38 124.497C124.051 124.599 122.584 124.422 121.114 124.066Z" fill="#1F2A50"/>
<path d="M110.357 87.2431C110.543 88.741 110.503 90.2675 110.224 91.7512C109.956 93.1775 109.617 94.6171 109.662 96.078C109.74 98.6395 111.159 101.483 112.195 103.79C112.468 104.398 112.754 105.005 113.053 105.609C115.237 110.007 118.166 114.223 122.296 116.929C123.337 117.609 124.49 118.202 125.732 118.261C127.044 118.324 128.328 117.777 129.381 116.992C129.642 116.797 130 116.386 130.406 115.925C129.081 103.539 121.096 92.3715 111.255 85.0404C110.996 84.8473 110.702 84.632 110.387 84.4148C110.58 85.3145 110.531 86.2914 110.357 87.2431Z" fill="#EBF2E5"/>
<path d="M129.499 122.411C129.66 122.165 129.799 121.902 129.919 121.625C130.506 120.259 130.621 118.572 130.509 117.057C130.486 116.741 130.455 116.425 130.423 116.111C130.417 116.049 130.413 115.987 130.406 115.925C130 116.386 129.642 116.797 129.381 116.992C128.327 117.777 127.044 118.324 125.732 118.261C124.49 118.202 123.337 117.609 122.296 116.929C118.166 114.223 115.237 110.007 113.053 105.609C112.754 105.005 112.468 104.398 112.195 103.79C111.159 101.483 109.74 98.6395 109.662 96.078C109.617 94.6171 109.956 93.1775 110.224 91.7512C110.503 90.2675 110.543 88.741 110.356 87.2431C110.349 87.2833 110.343 87.3241 110.335 87.3643C110.256 87.7695 110.155 88.1699 110.041 88.5563C109.988 88.7362 109.93 88.9146 109.872 89.0934C109.907 89.361 109.912 89.6316 109.888 89.8931C109.785 91.0086 109.277 92.0386 108.902 93.0939C108.276 94.8519 108.091 96.6393 108.15 98.433C108.234 100.925 108.789 103.429 109.29 105.883C110.763 113.093 114.763 119.854 120.887 124.009C120.963 124.029 121.039 124.048 121.114 124.066C122.584 124.422 124.051 124.599 125.38 124.497C125.58 124.481 125.774 124.458 125.967 124.429C126.713 124.32 127.407 124.115 128.021 123.79C128.648 123.458 129.129 122.979 129.499 122.411Z" fill="#C6CAD6"/>
<path d="M109.29 105.883C108.789 103.429 108.233 100.925 108.15 98.433C108.091 96.6393 108.276 94.852 108.901 93.0939C109.277 92.0387 109.784 91.0087 109.888 89.8931C109.912 89.6316 109.906 89.3611 109.872 89.0935C108.856 92.2289 107.126 95.1299 104.853 97.516C104.612 98.6165 104.338 99.7107 104.037 100.799C105.196 102.777 106.257 104.812 107.216 106.894C107.249 106.967 107.283 107.04 107.316 107.114C108.384 109.455 109.322 111.856 110.123 114.301C110.79 116.336 110.967 118.447 112.53 119.926C112.643 120.032 112.761 120.135 112.888 120.234C113.961 121.071 115.465 121.955 117.15 122.702C118.335 123.228 119.609 123.684 120.887 124.009C114.763 119.854 110.763 113.093 109.29 105.883Z" fill="#A1A8C3"/>
<path d="M106.156 81.1767C106.768 82.7294 107.121 84.3845 107.196 86.0522C107.212 86.415 107.22 86.7953 107.397 87.1128C107.543 87.374 107.844 87.5204 108.2 87.5909C108.847 87.7186 109.679 87.5963 110.11 87.4601C110.185 87.4359 110.26 87.4022 110.335 87.3643C110.343 87.3241 110.349 87.2833 110.357 87.2431C110.531 86.2914 110.58 85.3144 110.387 84.4148C110.254 83.7985 110.008 83.2177 109.612 82.7077C108.801 81.6675 107.464 81.1424 106.138 81.1587C106.139 81.1743 106.14 81.1901 106.14 81.2054C106.146 81.196 106.151 81.1863 106.156 81.1767Z" fill="#203A73"/>
<path d="M108.2 87.5909C107.844 87.5204 107.543 87.3739 107.397 87.1127C107.22 86.7952 107.212 86.415 107.196 86.0522C107.121 84.3845 106.768 82.7294 106.155 81.1767C106.151 81.1863 106.146 81.1959 106.14 81.2053C106.166 81.6312 106.19 82.0567 106.206 82.4829C106.267 84.1661 106.256 85.8515 106.175 87.5342C106.106 88.944 105.993 90.3513 105.825 91.7538C105.595 93.6857 105.269 95.6092 104.853 97.5159C107.126 95.1297 108.856 92.2287 109.872 89.0934C109.93 88.9145 109.988 88.7362 110.041 88.5562C110.155 88.1698 110.256 87.7694 110.334 87.3643C110.26 87.4021 110.185 87.4359 110.109 87.46C109.679 87.5962 108.847 87.7186 108.2 87.5909Z" fill="#1F2A50"/>
<path d="M37.0608 120.234C35.9881 121.071 34.4837 121.955 32.7997 122.702C32.9834 123.161 33.2105 123.608 33.443 124.042C33.9249 124.941 34.2507 125.811 34.591 126.763C34.8152 127.39 35.295 128.235 36.0735 128.252C36.8552 128.269 37.5551 127.047 37.7414 126.397C38.1493 124.976 37.3068 123.933 37.3424 122.564C37.3587 121.948 37.4708 121.336 37.4813 120.719C37.4856 120.455 37.4673 120.186 37.4188 119.925C37.3064 120.032 37.1881 120.135 37.0608 120.234Z" fill="#1F2A50"/>
<path d="M19.4397 117.057C19.4631 116.741 19.4942 116.425 19.5261 116.111C18.4135 117.237 17.4065 118.487 16.7254 119.925C16.4452 120.517 16.2183 121.162 16.2877 121.813C16.3569 122.463 16.7949 123.111 17.4355 123.243C18.2094 123.401 18.9152 122.802 19.4647 122.235C19.6576 122.036 19.8415 121.828 20.0305 121.625C19.4427 120.259 19.3284 118.572 19.4397 117.057Z" fill="#1F2A50"/>
<path d="M20.4499 122.411C19.8838 123.54 19.4311 124.726 19.2102 125.973C19.0959 126.618 19.0474 127.3 19.286 127.909C19.5244 128.518 20.1179 129.028 20.7706 128.986C21.5587 128.935 22.0817 128.171 22.4619 127.478C23.0084 126.482 23.512 125.463 23.9824 124.43C23.2369 124.32 22.5426 124.115 21.9285 123.79C21.3013 123.458 20.8199 122.979 20.4499 122.411Z" fill="#1F2A50"/>
<path d="M24.5689 124.497C24.386 125.386 24.2814 126.29 24.3023 127.201C24.3176 127.855 24.4045 128.534 24.7584 129.084C25.1124 129.634 25.7949 130.017 26.4262 129.847C27.1888 129.641 27.5509 128.789 27.7868 128.035C28.1649 126.829 28.4923 125.607 28.7683 124.373C28.7911 124.271 28.813 124.169 28.8351 124.066C27.365 124.422 25.8987 124.599 24.5689 124.497Z" fill="#1F2A50"/>
<path d="M20.777 117.001C21.8307 117.786 23.1141 118.333 24.4265 118.27C25.6683 118.211 26.8217 117.618 27.8625 116.938C31.9919 114.232 34.9216 110.017 37.105 105.619C37.4048 105.015 37.6906 104.407 37.9634 103.8C38.9999 101.492 40.4184 98.6491 40.4967 96.0873C40.5415 94.6264 40.202 93.1869 39.9341 91.7608C39.6968 90.4962 39.6359 89.2009 39.7368 87.9183C39.4544 86.7622 39.3233 85.5292 39.5627 84.4147C39.2471 84.6319 38.9535 84.8473 38.6944 85.0403C28.9065 92.3317 20.9554 103.418 19.5663 115.723C20.0484 116.267 20.4775 116.778 20.777 117.001Z" fill="#EBF2E5"/>
<path d="M40.8687 105.893C41.3701 103.439 41.9252 100.934 42.0081 98.4422C42.0676 96.6487 41.8826 94.8614 41.257 93.1033C40.8813 92.048 40.374 91.0175 40.2704 89.9025C40.2619 89.8086 40.2571 89.7139 40.2554 89.619C40.1315 89.2674 40.0138 88.9138 39.9078 88.5563C39.852 88.3672 39.8005 88.1739 39.7521 87.9792C39.747 87.9591 39.7419 87.939 39.7368 87.9183C39.6359 89.201 39.6968 90.4962 39.9341 91.7609C40.202 93.1869 40.5415 94.6265 40.4967 96.0874C40.4184 98.6491 38.9998 101.492 37.9634 103.8C37.6906 104.407 37.4048 105.015 37.105 105.619C34.9216 110.017 31.9919 114.232 27.8625 116.938C26.8217 117.618 25.6683 118.211 24.4265 118.27C23.1141 118.333 21.8306 117.786 20.777 117.001C20.4775 116.778 20.0484 116.267 19.5663 115.723C19.5515 115.852 19.5391 115.982 19.526 116.111C19.4941 116.425 19.463 116.741 19.4397 117.057C19.3284 118.572 19.4426 120.259 20.0304 121.625C20.1497 121.902 20.2892 122.165 20.4498 122.411C20.8199 122.979 21.3012 123.458 21.9284 123.79C22.5425 124.115 23.2368 124.32 23.9823 124.43C24.1746 124.458 24.3695 124.481 24.5688 124.497C25.8986 124.599 27.3649 124.422 28.835 124.066C29.0316 124.018 29.2279 123.967 29.4242 123.914C35.4622 119.749 39.408 113.042 40.8687 105.893Z" fill="#C6CAD6"/>
<path d="M40.2554 89.619C40.257 89.7139 40.2619 89.8086 40.2704 89.9025C40.374 91.0175 40.8813 92.048 41.257 93.1033C41.8826 94.8613 42.0677 96.6487 42.0081 98.4422C41.9252 100.934 41.3701 103.439 40.8687 105.893C39.408 113.042 35.4622 119.749 29.4242 123.914C30.5798 123.597 31.7261 123.178 32.7996 122.702C34.4837 121.955 35.9881 121.071 37.0607 120.234C37.1881 120.135 37.3063 120.032 37.4187 119.926C38.9826 118.447 39.1596 116.336 39.826 114.301C40.627 111.856 41.5653 109.455 42.6329 107.114C42.6661 107.04 42.7 106.967 42.7335 106.894C43.6318 104.942 44.6259 103.034 45.701 101.173C45.317 99.8192 44.9844 98.4538 44.6954 97.0802C42.7437 94.9174 41.2243 92.3661 40.2554 89.619Z" fill="#A1A8C3"/>
<path d="M39.7368 87.9183C39.7418 87.939 39.7469 87.9591 39.7521 87.9792C39.8872 88.0326 40.0368 88.0565 40.1824 88.0487C40.6227 88.0246 41.2379 87.7927 41.6903 87.4641C41.9046 87.3085 42.0821 87.131 42.1875 86.9441C42.3363 86.6789 42.3715 86.3678 42.4122 86.067C42.5905 84.75 42.9386 83.4569 43.439 82.2256C43.4535 81.8716 43.4784 81.5184 43.4996 81.1647C42.2787 81.2283 41.0842 81.7491 40.3376 82.7078C39.9405 83.2178 39.6954 83.7981 39.5627 84.4149C39.3233 85.5293 39.4544 86.7623 39.7368 87.9183Z" fill="#203A73"/>
<path d="M43.4267 82.7052C43.4318 82.5457 43.4323 82.3853 43.439 82.2255C42.9387 83.4569 42.5906 84.7499 42.4122 86.0669C42.3715 86.3678 42.3363 86.6789 42.1876 86.9441C42.0822 87.131 41.9046 87.3085 41.6904 87.464C41.238 87.7925 40.6228 88.0245 40.1825 88.0486C40.0369 88.0564 39.8872 88.0326 39.7521 87.9792C39.8007 88.1739 39.8522 88.3672 39.9079 88.5562C40.0138 88.9137 40.1316 89.2674 40.2555 89.6189C41.2243 92.366 42.7438 94.9173 44.6955 97.0801C44.4796 96.0565 44.2903 95.0289 44.1278 93.997C44.0101 93.2507 43.902 92.5031 43.8124 91.7538C43.4535 88.7507 43.3267 85.725 43.4267 82.7052Z" fill="#1F2A50"/>
<path d="M57.8906 122.218C58.0379 122.497 58.1904 122.775 58.3545 123.046C62.067 126.596 66.7789 129.093 71.8054 130.159C74.8579 130.807 78.0182 130.925 81.112 130.529C83.0261 130 84.852 129.192 86.5082 128.077C88.697 126.605 90.5228 124.553 91.7502 122.216C84.1634 125.044 65.481 125.044 57.8906 122.218Z" fill="#1F2A50"/>
<path d="M106.206 82.4829C102.256 84.2608 98.0894 85.596 93.834 86.514C91.0925 87.1052 88.3119 87.5279 85.515 87.7896C78.96 88.4021 72.2585 88.0712 65.7255 87.3144C57.9719 86.4158 50.5521 85.3477 43.4267 82.7052C43.3267 85.725 43.4535 88.7507 43.8123 91.7539C43.9019 92.5031 44.0099 93.2508 44.1277 93.9971C47.1968 96.4098 50.3381 98.7312 53.7547 100.609C62.6658 105.507 74.8968 107.764 84.9253 105.178C85.0516 105.145 85.1779 105.112 85.3037 105.078C89.9526 103.815 95.0048 98.9838 98.4877 95.8184C101.278 93.2816 103.85 90.5048 106.175 87.5343C106.256 85.8516 106.268 84.1662 106.206 82.4829Z" fill="#EBF2E5"/>
<path d="M68.5405 119.606C62.8833 119.036 57.2929 117.751 51.9639 115.766C52.8945 117.341 53.8936 118.882 54.9689 120.379C55.4776 121.087 56.4996 121.699 57.8906 122.218C65.4809 125.045 84.1634 125.044 91.7503 122.216C93.1399 121.698 94.1605 121.086 94.669 120.379C95.6609 118.998 96.585 117.578 97.4537 116.131C96.6073 116.43 95.7567 116.718 94.8983 116.983C86.4004 119.6 77.3872 120.499 68.5405 119.606Z" fill="#C6CAD6"/>
<path d="M105.825 91.7539C105.993 90.3514 106.106 88.944 106.175 87.5343C103.85 90.5048 101.278 93.2816 98.4876 95.8184C95.0047 98.9838 89.9525 103.815 85.3036 105.078C85.1778 105.112 85.0515 105.145 84.9252 105.178C74.8967 107.764 62.6657 105.507 53.7547 100.609C50.3379 98.7313 47.1967 96.4097 44.1276 93.9971C44.2901 95.029 44.4794 96.0566 44.6953 97.0802C44.9844 98.4537 45.3169 99.8191 45.7009 101.173C47.0931 106.083 49.1046 110.846 51.7024 115.326C53.5221 116.016 55.3722 116.627 57.2477 117.152C65.7321 119.525 74.6697 120.199 83.4133 119.115C88.282 118.512 93.0923 117.372 97.7104 115.706C100.483 111.002 102.603 105.98 104.037 100.799C104.338 99.7105 104.612 98.6165 104.853 97.5159C105.269 95.6093 105.595 93.6857 105.825 91.7539Z" fill="#C6CAD6"/>
<path d="M83.4134 119.115C74.6699 120.199 65.7323 119.525 57.2478 117.152C55.3723 116.627 53.5222 116.016 51.7025 115.326C51.788 115.473 51.8771 115.619 51.964 115.766C57.2929 117.75 62.8834 119.036 68.5405 119.606C77.3872 120.499 86.4005 119.6 94.8983 116.983C95.7567 116.718 96.6073 116.43 97.4537 116.131C97.5392 115.989 97.6267 115.848 97.7106 115.706C93.0925 117.372 88.2822 118.512 83.4134 119.115Z" fill="#203A73"/>
<path d="M43.4267 82.7052C50.5521 85.3477 57.9719 86.4158 65.7255 87.3144C72.2585 88.0712 78.9599 88.4021 85.515 87.7896C88.3119 87.5279 91.0925 87.1052 93.834 86.514C98.0894 85.596 102.256 84.2609 106.206 82.4829C106.19 82.0568 106.166 81.6312 106.141 81.2054C106.14 81.1901 106.139 81.1743 106.138 81.1587C106.115 80.771 106.092 80.3832 106.061 79.9957C95.9925 80.9796 53.6452 80.9796 43.5772 79.9957C43.5461 80.3851 43.5227 80.7748 43.4997 81.1646C43.4785 81.5183 43.4535 81.8715 43.439 82.2255C43.4323 82.3853 43.4318 82.5457 43.4267 82.7052Z" fill="#A1A8C3"/>
<path d="M30.2127 49.3813C30.5607 47.8619 31.0987 45.2776 31.2038 44.9129C31.7244 43.1057 32.3446 41.3248 33.0708 39.5898C33.1976 39.2871 33.3566 38.8567 33.5508 38.3973C34.2062 36.1399 34.9948 33.933 35.9068 31.8058C36.009 31.568 36.1122 31.3304 36.2166 31.093C34.5135 31.4629 33.0603 31.9241 32.4749 32.4135C31.5586 33.1796 30.952 34.1855 30.4025 35.1892C28.0553 39.479 26.7753 43.9324 26.4318 48.4142C27.2494 48.9868 28.1033 49.5076 28.9941 49.9578C29.4897 50.2081 30.0888 49.9222 30.2127 49.3813Z" fill="#203A73"/>
<path d="M119.235 35.1893C118.686 34.1856 118.08 33.1797 117.163 32.4135C116.577 31.9236 115.122 31.4621 113.417 31.0923C113.524 31.3288 113.628 31.5664 113.731 31.8059C115.095 34.9858 116.186 38.343 116.959 41.7838C117.292 42.2699 117.616 42.6156 117.823 43.1981C118.332 44.6293 118.76 46.0731 119.283 47.4935C119.443 47.9279 119.612 48.3599 119.796 48.7887C121.066 48.2567 122.136 47.5187 123.014 46.5842C122.494 42.722 121.263 38.8945 119.235 35.1893Z" fill="#203A73"/>
<path d="M123.305 50.8629C123.303 49.4347 123.205 48.0072 123.014 46.5841C122.137 47.5186 121.066 48.2566 119.796 48.7887C119.613 48.3599 119.444 47.9279 119.283 47.4934C118.76 46.073 118.332 44.6292 117.823 43.198C117.616 42.6156 117.292 42.2699 116.959 41.7837C117.611 44.6866 118.035 47.649 118.202 50.6151C118.48 55.5713 118.04 60.5379 116.74 65.2544C116.198 67.2184 115.452 69.3249 114.483 71.3629C116.298 70.8553 117.867 70.256 118.453 69.6925C119.315 68.865 119.85 67.8194 120.329 66.78C122.746 61.5302 123.665 56.1546 123.305 50.8629Z" fill="#1F2A50"/>
<path d="M31.3738 52.1665C31.4924 47.5195 32.2561 42.8585 33.5508 38.3974C33.3566 38.8567 33.1976 39.2872 33.0708 39.5899C32.3446 41.3249 31.7244 43.1058 31.2038 44.913C31.0987 45.2777 30.5608 47.862 30.2127 49.3814C30.0888 49.9223 29.4897 50.2081 28.9941 49.9579C28.1033 49.5076 27.2495 48.9869 26.4319 48.4144C26.3694 49.2301 26.3342 50.0464 26.3331 50.863C25.9725 56.1547 26.8923 61.5303 29.3092 66.7801C29.7877 67.8195 30.3234 68.865 31.1845 69.6926C31.7707 70.256 33.34 70.8554 35.1555 71.363C34.1858 69.3249 33.4398 67.2185 32.8983 65.2545C31.734 61.0301 31.2609 56.6049 31.3738 52.1665Z" fill="#1F2A50"/>
<path d="M116.959 41.7837C116.186 38.3429 115.095 34.9858 113.731 31.8058C113.628 31.5664 113.524 31.3288 113.417 31.0922C112.013 27.9646 110.261 25.0875 107.439 22.9296C102.448 19.1145 47.808 19.2389 42.1996 22.9296C39.2303 24.8837 37.6036 27.9384 36.2167 31.0931C36.1123 31.3304 36.0091 31.568 35.9069 31.8058C34.9949 33.9329 34.2062 36.1399 33.5509 38.3973C32.2562 42.8585 31.4925 47.5195 31.3739 52.1664C32.2471 53.1788 33.1998 54.1227 34.2178 54.9884C35.6784 56.2308 37.4666 58.1814 39.4236 56.8298C40.9573 55.7708 40.6556 53.8564 40.8014 52.2198C40.9554 50.4926 41.1294 48.7436 41.5338 47.0539C41.7735 46.0513 42.0605 45.0583 42.3917 44.0805C43.1744 40.0423 44.8035 36.2075 47.667 33.1885C48.4074 32.4079 61.7671 32.1269 74.8191 32.1934C87.8712 32.1269 101.231 32.4079 101.971 33.1885C104.386 35.7345 105.921 38.8615 106.814 42.2004C107.03 42.6369 107.235 43.0792 107.424 43.5286C108.117 45.1854 108.555 46.8158 108.794 48.587L109.569 54.3335C109.702 55.3201 110.746 55.9112 111.654 55.5046C113.465 54.6945 115.16 53.6824 116.623 52.3379C117.226 51.7833 117.746 51.2078 118.202 50.6152C118.035 47.649 117.611 44.6866 116.959 41.7837Z" fill="#EBF2E5"/>
<path d="M118.202 50.6152C117.746 51.2078 117.226 51.7833 116.622 52.3379C115.16 53.6824 113.465 54.6945 111.654 55.5046C110.745 55.9112 109.702 55.3201 109.568 54.3335L108.794 48.587C108.555 46.8158 108.116 45.1854 107.423 43.5286C107.235 43.0792 107.03 42.637 106.814 42.2004C107.406 44.4184 107.716 46.7294 107.806 49.0278C108.037 50.2683 108.179 51.536 108.229 52.8081C108.423 57.8233 106.998 69.6019 103.884 71.0915C100.39 72.7622 52.1414 71.1634 48.6749 70.8791C45.7943 70.6429 44.8348 69.1154 43.9759 66.3665C43.2358 63.9965 42.7911 61.4802 42.6662 58.952C41.7563 54.4691 41.4149 49.1174 42.3916 44.0805C42.0604 45.0582 41.7735 46.0512 41.5337 47.0539C41.1293 48.7436 40.9553 50.4926 40.8014 52.2198C40.6555 53.8564 40.9572 55.7708 39.4236 56.8298C37.4665 58.1813 35.6784 56.2307 34.2177 54.9883C33.1998 54.1227 32.247 53.1788 31.3738 52.1664C31.2609 56.6047 31.734 61.03 32.8983 65.2543C33.4398 67.2183 34.1858 69.3248 35.1555 71.3629C36.6738 74.5548 38.7451 77.5775 41.471 79.61C41.6616 79.7518 42.3989 79.8805 43.5772 79.9956C53.6451 80.9795 95.9924 80.9795 106.061 79.9956C107.239 79.8805 107.977 79.7518 108.167 79.61C110.893 77.5776 112.964 74.5548 114.483 71.3629C115.452 69.3248 116.198 67.2184 116.74 65.2543C118.04 60.538 118.48 55.5713 118.202 50.6152Z" fill="#C6CAD6"/>
<path d="M102.556 69.2684C101.729 69.7567 88.1202 69.9948 74.819 69.983C61.5178 69.9948 47.9085 69.7567 47.0815 69.2684C45.6505 68.4231 43.7533 64.3084 42.6662 58.9522C42.7911 61.4804 43.2358 63.9966 43.9759 66.3666C44.8348 69.1156 45.7943 70.643 48.6749 70.8792C52.1414 71.1635 100.39 72.7623 103.884 71.0916C106.998 69.602 108.423 57.8235 108.229 52.8083C108.179 51.5361 108.037 50.2685 107.806 49.028C108.185 58.6043 104.798 67.9447 102.556 69.2684Z" fill="#A1A8C3"/>
<path d="M107.806 49.0279C107.716 46.7295 107.406 44.4185 106.814 42.2005C105.921 38.8615 104.386 35.7345 101.971 33.1886C101.231 32.408 87.871 32.1269 74.819 32.1934C61.7669 32.1269 48.4073 32.408 47.6668 33.1886C44.8034 36.2076 43.1743 40.0423 42.3915 44.0806C41.4148 49.1175 41.7562 54.4692 42.6661 58.9521C43.7533 64.3084 45.6505 68.4231 47.0814 69.2684C47.9084 69.7567 61.5177 69.9948 74.8189 69.983C88.1201 69.9948 101.729 69.7567 102.556 69.2684C104.798 67.9447 108.185 58.6043 107.806 49.0279Z" fill="#1F2A50"/>
<path d="M47.0841 48.1574C46.6626 50.2746 46.3193 52.5215 47.0587 54.5496C48.245 57.8027 51.803 58.0765 54.7856 57.9529C54.9025 57.9481 55.0202 57.9413 55.1371 57.9365C54.6617 57.0242 54.4139 55.9733 54.3514 54.9693C54.197 52.4931 54.4668 42.936 55.714 41.5804C57.5332 39.6035 61.4567 39.5826 63.2947 41.5804C64.5419 42.9365 64.8117 52.4931 64.6573 54.9693C64.6069 55.7767 64.4363 56.6136 64.1247 57.3851C68.6588 57.0177 73.1999 56.5055 77.6774 55.7906C80.1156 55.4012 82.5427 54.9448 84.9573 54.4294C84.8637 51.3372 85.1736 42.8517 86.3434 41.5804C88.1626 39.6034 92.0858 39.5825 93.9241 41.5804C94.8155 42.5495 95.2072 47.706 95.3025 51.4742C96.4636 50.9092 97.5652 50.1959 98.5982 49.2404C100.715 47.2815 102.464 44.0997 101.07 41.235C100.28 39.6099 98.7556 38.4343 97.0983 37.714C95.4413 36.994 93.6406 36.6802 91.8579 36.3884C80.071 34.459 67.9387 33.2252 56.2387 35.6266C54.7815 35.9255 53.1685 36.2548 51.8647 37.006C50.7157 37.6681 50.1343 38.9175 49.555 40.0968C48.3108 42.6308 47.6329 45.402 47.0841 48.1574Z" fill="#203A73"/>
<path d="M63.2946 41.5805C61.4567 39.5826 57.5331 39.6036 55.7139 41.5805C54.4667 42.9361 54.1969 52.4932 54.3514 54.9694C54.4138 55.9734 54.6617 57.0243 55.1371 57.9366C55.5146 58.6618 56.036 59.2999 56.724 59.7569C58.2169 60.7486 60.7436 60.7805 62.2844 59.7569C63.142 59.1871 63.7405 58.3362 64.1246 57.3853C64.4362 56.6138 64.6067 55.7768 64.6571 54.9694C64.8117 52.4931 64.5419 42.9365 63.2946 41.5805Z" fill="#3EC0F0"/>
<path d="M86.3433 41.5805C85.1736 42.8518 84.8635 51.3374 84.9572 54.4296C84.9634 54.6342 84.9714 54.8157 84.9811 54.9694C85.0932 56.7717 85.8001 58.725 87.3535 59.7569C88.8461 60.7485 91.3728 60.7804 92.9136 59.7569C94.4677 58.725 95.1743 56.7717 95.2866 54.9694C95.3306 54.263 95.3402 52.9788 95.3024 51.4744C95.2072 47.7061 94.8154 42.5496 93.924 41.5805C92.0858 39.5826 88.1625 39.6036 86.3433 41.5805Z" fill="#3EC0F0"/>
<path d="M71.8054 130.159C66.7789 129.093 62.0671 126.596 58.3545 123.046C59.5583 125.038 61.2035 126.782 63.13 128.077C66.5443 130.374 70.6818 131.37 74.8185 131.316C76.9496 131.343 79.0801 131.093 81.112 130.529C78.0182 130.925 74.8579 130.807 71.8054 130.159Z" fill="#203A73"/>
</svg>
